<svg width="16" height="22" viewBox="0 0 16 22" fill="none" xmlns="http://www.w3.org/2000/svg">
<path d="M7.92225 0.683594C3.92927 0.683594 0.680664 3.93219 0.680664 7.92516C0.680664 12.9439 7.92937 21.5169 7.92937 21.5169C7.92937 21.5169 15.1638 12.6971 15.1638 7.92516C15.1638 3.93219 11.9154 0.683594 7.92225 0.683594ZM10.1072 10.0455C9.50471 10.6478 8.71354 10.9491 7.92225 10.9491C7.13108 10.9491 6.33965 10.6478 5.73744 10.0455C4.53263 8.84082 4.53263 6.88057 5.73744 5.67576C6.32083 5.09211 7.09687 4.77066 7.92225 4.77066C8.74762 4.77066 9.52353 5.09224 10.1072 5.67576C11.312 6.88057 11.312 8.84082 10.1072 10.0455Z" fill="white"/>
</svg>
